# xmcd CD database file
#
# Track frame offsets:
#	150
#	11365
#	21782
#	31990
#	43477
#	58862
#	70932
#	80780
#	93505
#	103240
#	116452
#
# Disc length: 1742 seconds
#
# Revision: 1
# Processed by: cddbd v1.5.2PL0 Copyright (c) Steve Scherf et al.
# Submitted via: CDex 1.70beta2
#
DISCID=9406cc0b
DTITLE=Haggard, Merle - Goin' Home For Christmas
DYEAR=2003
DGENRE=Christmas
TTITLE0=Goin' Home For Christmas
TTITLE1=Grandma's Homemade Christmas Card
TTITLE2=Santa Claus Is Comin' To Town
TTITLE3=Santa Claus And Popcorn
TTITLE4=Daddy Won't Be Home Again For Christmas
TTITLE5=If We Make It Through December
TTITLE6=Bobby Wants A Puppy Dog For Christmas
TTITLE7=Rudolph The Red-Nosed Reindeer
TTITLE8=Blue Christmas
TTITLE9=Lonely Night
TTITLE10=White Christmas
EXTD=Copyright 2003 Epic/Legacy\nOriginally Released October 1982\nCD Edition Released October 10, 1995\nRemastered CD Edition Released September 16, 2003\n\nAMG EXPERT REVIEW: First issued in 1978, Goin' Home for Christmas strikes an emotional chord rar
EXTD=e among seasonal releases: Haggard suffuses songs like "Daddy Won't Be Home Again for Christmas," his classic "If We Make It Through December" and the title track with a depth and resonance absent from most holiday fluff, and even perennials like "R
EXTD=udolph the Red-Nosed Reindeer" and "Blue Christmas" take on new meaning in his hands. -- Hank Small\n\nAmazon.com Editorial Review\nHis is a voice of great depth, able to reflect growing pains and heartbreak with a slight crack in his otherwise manl
EXTD=y voice. It is great testament to his interpretive powers that even when delivering a series of holiday songs Merle Haggard is able to make it something deeply touching and personal. This is an interesting collection that puts "Santa Claus Is Coming
EXTD=to Town" up against a tale of deep economic woe ("If We Make It Through December"), while still managing to include several sentimental Christmas tales ("Bobby Wants a Puppy Dog for Christmas," "Grandma's Homemade Christmas Card"). Whether he's sin
EXTD=ging about hobos, prisoners, fugitives, or family, Haggard always keeps it real. --Rob O'Connor \n\nAmazon.com Customer Review\nHave a holly, jolly, Haggard holiday!, November 16, 2003 \nReviewer: Joe Sixpack from Berkeley, CA United States  \nAn ou
EXTD=tstanding holiday album, with Merle crooning over a tasteful bed of strings'n'pedal steel - he was admirably suited to the cornball spirit of the holidays, and really put his heart into each of these tracks... Most of the songs are Haggard originals,
EXTD=ranging from tearjerkers like "Grandma's Homemade Christmas Card" and "Daddy Won't Be Home Again For Christmas" (he's in prison...) to a sleighbell-bedecked remake of "If We Can Make It Through December" and the cheery "Santa Claus And Popcorn." Pl
EXTD=us, his spins at older tunes like "Santa Claus Is Comin' To Town" and "Blue Christmas" are pretty rich and resonant -- Merle's version of "Rudolph, The Red-Nosed Reindeer" is a welcome addition to the hillbilly holiday repertoire.  (The CD reissue a
EXTD=lso includes a bonus track from 1986, a jazzy acoustic version of "White Christmas..." It doesn't match the tone of the other tracks, but it's also kinda cool.) This is a really nice album. YEAR: 2003
EXTT0=
EXTT1=
EXTT2=
EXTT3=
EXTT4=
EXTT5=
EXTT6=
EXTT7=
EXTT8=
EXTT9=
EXTT10=
PLAYORDER=
